<?xml version="1.0" encoding="UTF-8" standalone="no"?>
<!-- Created with Inkscape (http://www.inkscape.org/) -->
<svg id="svg4776" xmlns:rdf="http://www.w3.org/1999/02/22-rdf-syntax-ns#" xmlns="http://www.w3.org/2000/svg" height="50" width="150.29" version="1.1" xmlns:cc="http://creativecommons.org/ns#" xmlns:dc="http://purl.org/dc/elements/1.1/">
 <metadata id="metadata4781">
  <rdf:RDF>
   <cc:Work rdf:about="">
    <dc:format>image/svg+xml</dc:format>
    <dc:type rdf:resource="http://purl.org/dc/dcmitype/StillImage"/>
    <dc:title/>
   </cc:Work>
  </rdf:RDF>
 </metadata>
 <g id="layer1" transform="translate(-178.08532,-102.08611)">
  <rect id="rect3840" fill-rule="nonzero" height="141.15" width="235.61" y="686.85" x="-944.02" fill="#FFF"/>
  <g id="g3006" transform="translate(2.7779195,-3.5355339)">
   <g id="text3875" style="writing-mode:lr-tb;letter-spacing:0px;text-anchor:start;word-spacing:0px;text-align:start;" font-weight="normal" transform="matrix(1.1263874,0,0,1.1263874,21.065723,-12.834986)" line-height="125%" font-stretch="normal" font-size="28px" font-variant="normal" font-style="normal" font-family="Terminator Two" fill="#000">
    <path id="path3966" d="m143.6,137.16-4.1998,0,0-18.2,4.1998,0,0,18.2z"/>
    <path id="path3968" d="m144.98,137.16,0-12.6c0-1.5307,0.55072-2.8419,1.6522-3.9336,1.1014-1.0917,2.4175-1.6376,3.9482-1.6376l8.3997-0.0282c1.5495,0.0188,2.8702,0.57409,3.9623,1.6658,1.092,1.0918,1.638,2.4124,1.6381,3.9618v12.572h-4.2007v-12.6c-0.00002-0.35431-0.13061-0.66221-0.39178-0.9237-0.26121-0.26146-0.55045-0.41071-0.86774-0.44776-0.0188,0.00002-0.0422,0.00002-0.0701,0-0.0279,0.00002-0.0513,0.00002-0.0701,0l-8.3997-0.0282c-0.3737,0.0188-0.70054,0.1635-0.98053,0.43408-0.27999,0.2706-0.41998,0.60186-0.41998,0.99377v12.572h-4.1998z"/>
    <path id="path3970" d="m173.01,123.16-6.9718,0,0-4.1998,18.172,0,0,4.1998-7,0,0,14.028-4.1998,0,0-14.028z" fill="#008000"/>
    <path id="path3972" d="m189.81,131.56c0,0.29908,0.098,0.56526,0.29395,0.79853,0.19596,0.23328,0.41528,0.40574,0.65796,0.51739,0.0746,0.0376,0.14939,0.0658,0.2243,0.0846,0.0749,0.0188,0.14967,0.0282,0.22431,0.0282l11.2-0.0282v4.1998h-11.2c-1.5307,0-2.8468-0.54602-3.9482-1.6381-1.1014-1.092-1.6522-2.4034-1.6522-3.9341v-1.1061-2.4221-2.2396-1.2322c0-1.5495,0.55072-2.8701,1.6522-3.9618,1.1014-1.0917,2.4175-1.6376,3.9482-1.6376l11.031-0.0282v4.1998h-11.031c-0.37371,0.0188-0.70055,0.1635-0.98053,0.43408-0.28,0.2706-0.41999,0.60186-0.41999,0.99377v1.3723h11.901v4.1998h-11.901v1.3996z"/>
    <path id="path3974" d="m203.82,118.96c0,0.0188,0.72333,0.0282,2.17,0.0282,1.4467,0.00001,3.0379,0.00001,4.7736,0,1.4936,0.00001,2.8984,0.00001,4.2144,0,1.3159,0.00001,2.1607,0.00001,2.5344,0,1.5489,0.00001,2.8694,0.54589,3.9614,1.6376,1.092,1.0918,1.638,2.4124,1.6381,3.9618-0.00002,0.63462-0.0933,1.2366-0.27984,1.806-0.18659,0.56939-0.42912,1.0968-0.7276,1.5821,0.42893,0.48536,0.75549,1.0361,0.97967,1.6522,0.22414,0.6161,0.33622,1.2694,0.33624,1.9598v5.5722h-4.2007v-5.6004c-0.00002-0.33552-0.11665-0.63402-0.34991-0.8955-0.2333-0.26147-0.50858-0.42012-0.82587-0.47596-0.037,0.00001-0.57366,0.00001-1.6099,0-1.0362,0.00001-2.1701,0.00001-3.4017,0-1.251,0.00001-2.3991,0.00001-3.4445,0-1.0453,0.00001-1.568,0.00001-1.568,0v7h-4.1998v-18.228zm13.832,4.1998-9.6318,0,0,2.8002,9.6318,0c0.37368,0.0188,0.70052-0.11179,0.98053-0.39179,0.27997-0.27997,0.41996-0.60682,0.41998-0.98053-0.00002-0.39191-0.14001-0.72317-0.41998-0.99377-0.28001-0.27058-0.60685-0.40587-0.98053-0.40589z"/>
    <path id="path3976" d="m229.02,137.16-4.1998,0,0-4.1998,4.1998,0,0,4.1998z"/>
   </g>
   <g id="g3978" transform="matrix(0.92765291,0,0,0.92765291,67.080268,13.750003)">
    <path id="text3899" style="text-align:start;" d="m259.3,114.95-0.54913,2.471c-0.45945,2.2063-1.0968,5.4665-1.2813,6.3149-0.00003,1.5223-0.27884,3.1669-0.85419,4.9421-0.57539,1.7752-1.0931,3.4198-1.9043,4.3331l0.68404,3.2935c0.20328,0.84631,0.39879,1.3238,1.0242,1.7634l5.0255-5.2384c-0.00003-0.30446,0.1835-0.63566,0.38721-1.6502l3.4473-16.23h-5.9793z" fill="#000"/>
    <path id="path3884-0" d="m261.78,133.28c-0.00006,0.38059,0.0867,0.6663,0.26007,0.85712,0.17334,0.19084,0.39853,0.28625,0.67555,0.28625,0.72732,0,1.6799-0.45038,2.8576-1.3511,1.5593-1.1777,2.8325-2.754,3.8194-4.7289,0.98687-1.9748,1.4803-4.019,1.4804-6.1323-0.00004-3.8101-1.3771-6.9884-4.131-9.5347-2.7541-2.5462-6.6081-3.8194-11.562-3.8194-4.1908,0.00003-7.7412,0.84872-10.651,2.546-2.91,1.6974-5.1013,4.0964-6.574,7.1972s-2.209,6.3311-2.209,9.6909c0,3.2562,0.82277,6.2182,2.4683,8.8861s3.9579,4.6166,6.9371,5.8461,6.3918,1.8443,10.238,1.8443c3.6716,0,6.8412-0.51089,9.5085-1.5327s4.815-2.555,6.4431-4.5996h4.9366c-1.5584,3.1188-3.9313,5.5789-7.1187,7.3804-3.6717,2.0087-8.1405,3.013-13.406,3.013-5.1275,0-9.5445-0.85742-13.251-2.5722-3.7066-1.7148-6.4606-4.2524-8.2621-7.6127s-2.7022-7.0154-2.7022-10.965c0-4.3641,1.022-8.4169,3.0662-12.158,2.0441-3.7414,4.8589-6.5475,8.4444-8.4183,3.5855-1.8707,7.6644-2.8061,12.237-2.8061,3.9148,0.00003,7.3877,0.75357,10.419,2.2606,3.031,1.5071,5.3433,3.6548,6.9371,6.4432,1.5937,2.7884,2.3906,5.8282,2.3906,9.1192-0.00005,3.9498-1.2127,7.5184-3.6378,10.706-3.048,4.0184-6.9454,6.0276-11.692,6.0276-1.3162,0-2.2947-0.22516-2.9353-0.67554" style="text-align:start;" fill="#000"/>
    <path id="path3963" d="m252.07,114.53c-2.9826-0.0509-5.8119,1.3966-7.7892,3.5789-2.4592,2.6858-4.0775,6.2149-4.3444,9.8569-0.12686,2.4774-0.17026,5.1546,1.2665,7.3044,1.5506,2.6391,4.5891,4.3498,7.671,4.0835,2.1772,0.0346,4.3457-0.94284,5.8795-2.464,0.18408-0.62411-0.2893-1.4253-0.36552-2.1184-0.16001-0.37303-0.13824-1.0822-0.41195-1.2891-1.2653,1.1539-2.9449,2.0827-4.7154,1.752-2.1137-0.27816-3.445-2.3497-3.5216-4.3595-0.23141-3.0928,0.40453-6.2992,1.9038-9.0211,1.2627-2.2819,4.0225-3.9777,6.6488-3.0857,1.5781,0.57634,2.4297,2.1923,2.7819,3.7328l1.0157-4.9758c-1.2357-2.0158-3.45-3.1404-5.7903-2.9989l-0.12625,0.002-0.10261,0.002z" fill-rule="nonzero" fill="#008000"/>
   </g>
  </g>
 </g>
</svg>
