<?xml version="1.0" encoding="UTF-8" standalone="no"?>
<!-- Created with Inkscape (http://www.inkscape.org/) -->

<svg
   xmlns:dc="http://purl.org/dc/elements/1.1/"
   xmlns:cc="http://creativecommons.org/ns#"
   xmlns:rdf="http://www.w3.org/1999/02/22-rdf-syntax-ns#"
   xmlns:svg="http://www.w3.org/2000/svg"
   xmlns="http://www.w3.org/2000/svg"
   xmlns:sodipodi="http://sodipodi.sourceforge.net/DTD/sodipodi-0.dtd"
   xmlns:inkscape="http://www.inkscape.org/namespaces/inkscape"
   width="34.279999"
   height="34.279999"
   id="svg4427"
   version="1.1"
   inkscape:version="0.48.5 r10040"
   sodipodi:docname="perfect.svg">
  <defs
     id="defs4429" />
  <sodipodi:namedview
     id="base"
     pagecolor="#ffffff"
     bordercolor="#666666"
     borderopacity="1.0"
     inkscape:pageopacity="0.0"
     inkscape:pageshadow="2"
     inkscape:zoom="7.9195959"
     inkscape:cx="19.773377"
     inkscape:cy="19.036791"
     inkscape:document-units="px"
     inkscape:current-layer="layer1"
     showgrid="false"
     fit-margin-top="0"
     fit-margin-left="0"
     fit-margin-right="0"
     fit-margin-bottom="0"
     inkscape:window-width="1280"
     inkscape:window-height="750"
     inkscape:window-x="-8"
     inkscape:window-y="-8"
     inkscape:window-maximized="1" />
  <metadata
     id="metadata4432">
    <rdf:RDF>
      <cc:Work
         rdf:about="">
        <dc:format>image/svg+xml</dc:format>
        <dc:type
           rdf:resource="http://purl.org/dc/dcmitype/StillImage" />
        <dc:title />
      </cc:Work>
    </rdf:RDF>
  </metadata>
  <g
     inkscape:label="Ebene 1"
     inkscape:groupmode="layer"
     id="layer1"
     transform="translate(-649.06935,-731.86941)">
    <rect
       ry="3.5355339"
       rx="3.5355339"
       style="fill:none;stroke:#008000;stroke-width:0.5;stroke-miterlimit:4;stroke-dasharray:none"
       id="rect10553"
       width="32.762096"
       height="32.762096"
       x="649.83832"
       y="732.6189" />
    <g
       id="g7012"
       transform="matrix(0.21234691,0,0,0.21234691,448.85936,662.83834)">
      <text
         sodipodi:linespacing="125%"
         id="text5458-5"
         y="463.2193"
         x="981.71423"
         style="font-size:28.25564957px;font-style:normal;font-variant:normal;font-weight:normal;font-stretch:normal;text-align:start;line-height:125%;letter-spacing:0px;word-spacing:0px;writing-mode:lr-tb;text-anchor:start;fill:#000000;fill-opacity:1;stroke:none;font-family:Calibri;-inkscape-font-specification:Calibri"
         xml:space="preserve"><tspan
           y="463.2193"
           x="981.71423"
           id="tspan5460-0"
           sodipodi:role="line">Perfect</tspan></text>
      <path
         transform="translate(680.71426,-22.714318)"
         d="m 362.14284,413.07648 c 0,11.44018 -9.2741,20.71428 -20.71428,20.71428 -11.44019,0 -20.71429,-9.2741 -20.71429,-20.71428 0,-11.44019 9.2741,-20.71429 20.71429,-20.71429 11.44018,0 20.71428,9.2741 20.71428,20.71429 z"
         sodipodi:ry="20.714285"
         sodipodi:rx="20.714285"
         sodipodi:cy="413.07648"
         sodipodi:cx="341.42856"
         id="path5462-9"
         style="fill:none;stroke:#000000;stroke-width:1;stroke-linecap:round;stroke-linejoin:miter;stroke-miterlimit:4;stroke-opacity:1;stroke-dasharray:none;stroke-dashoffset:0"
         sodipodi:type="arc" />
      <path
         transform="translate(674.42855,-24.857178)"
         d="m 343.92858,412.18362 c 0,3.84627 -3.11802,6.96429 -6.96429,6.96429 -3.84626,0 -6.96428,-3.11802 -6.96428,-6.96429 0,-3.84626 3.11802,-6.96428 6.96428,-6.96428 3.84627,0 6.96429,3.11802 6.96429,6.96428 z"
         sodipodi:ry="6.9642859"
         sodipodi:rx="6.9642859"
         sodipodi:cy="412.18362"
         sodipodi:cx="336.96429"
         id="path5466-0"
         style="fill:none;stroke:#000000;stroke-width:1;stroke-linecap:round;stroke-linejoin:miter;stroke-miterlimit:4;stroke-opacity:1;stroke-dasharray:none;stroke-dashoffset:0"
         sodipodi:type="arc" />
      <path
         sodipodi:type="arc"
         style="fill:none;stroke:#000000;stroke-width:1;stroke-linecap:round;stroke-linejoin:miter;stroke-miterlimit:4;stroke-opacity:1;stroke-dasharray:none;stroke-dashoffset:0"
         id="path5468-6"
         sodipodi:cx="336.96429"
         sodipodi:cy="412.18362"
         sodipodi:rx="6.9642859"
         sodipodi:ry="6.9642859"
         d="m 343.92858,412.18362 c 0,3.84627 -3.11802,6.96429 -6.96429,6.96429 -3.84626,0 -6.96428,-3.11802 -6.96428,-6.96429 0,-3.84626 3.11802,-6.96428 6.96428,-6.96428 3.84627,0 6.96429,3.11802 6.96429,6.96428 z"
         transform="translate(694.78569,-25.214318)" />
      <path
         transform="translate(678.89284,-21.285738)"
         d="m 333.57143,411.46933 c 0,0.69036 -0.4797,1.25 -1.07143,1.25 -0.59173,0 -1.07143,-0.55964 -1.07143,-1.25 0,-0.69036 0.4797,-1.25 1.07143,-1.25 0.59173,0 1.07143,0.55964 1.07143,1.25 z"
         sodipodi:ry="1.25"
         sodipodi:rx="1.0714285"
         sodipodi:cy="411.46933"
         sodipodi:cx="332.5"
         id="path5470-1"
         style="fill:#000000;stroke:#000000;stroke-width:1;stroke-linecap:round;stroke-linejoin:miter;stroke-miterlimit:4;stroke-opacity:1;stroke-dasharray:none;stroke-dashoffset:0"
         sodipodi:type="arc" />
      <path
         transform="translate(698.89284,-22.000028)"
         sodipodi:type="arc"
         style="fill:#000000;stroke:#000000;stroke-width:1;stroke-linecap:round;stroke-linejoin:miter;stroke-miterlimit:4;stroke-opacity:1;stroke-dasharray:none;stroke-dashoffset:0"
         id="path5472-3"
         sodipodi:cx="332.5"
         sodipodi:cy="411.46933"
         sodipodi:rx="1.0714285"
         sodipodi:ry="1.25"
         d="m 333.57143,411.46933 c 0,0.69036 -0.4797,1.25 -1.07143,1.25 -0.59173,0 -1.07143,-0.55964 -1.07143,-1.25 0,-0.69036 0.4797,-1.25 1.07143,-1.25 0.59173,0 1.07143,0.55964 1.07143,1.25 z" />
      <path
         transform="translate(688.21426,-22.714318)"
         sodipodi:open="true"
         sodipodi:end="6.2166171"
         sodipodi:start="0"
         d="m 360.71427,460.57648 c 0,14.79334 -11.99237,26.78571 -26.78571,26.78571 -14.79334,0 -26.78572,-11.99237 -26.78572,-26.78571 0,-14.79334 11.99238,-26.78572 26.78572,-26.78572 14.10171,0 25.78835,10.93348 26.72639,25.00396"
         sodipodi:ry="26.785715"
         sodipodi:rx="26.785715"
         sodipodi:cy="460.57648"
         sodipodi:cx="333.92856"
         id="path5477-9"
         style="fill:none;stroke:#000000;stroke-width:1;stroke-linecap:round;stroke-linejoin:miter;stroke-miterlimit:4;stroke-opacity:1;stroke-dasharray:none;stroke-dashoffset:0"
         sodipodi:type="arc" />
      <path
         sodipodi:nodetypes="sssss"
         inkscape:connector-curvature="0"
         id="path5638"
         d="m 1031.9286,400.20853 c 0,1.38071 -4.2373,3.43934 -9.4643,3.43934 -5.227,0 -9.4643,-2.05863 -9.4643,-3.43934 0,-1.38071 3.8802,0.5822 9.1071,0.5822 5.227,0 9.8215,-1.96291 9.8215,-0.5822 z"
         style="fill:#ffffff;fill-opacity:1;fill-rule:nonzero;stroke:#000000;stroke-width:1;stroke-linecap:round;stroke-linejoin:miter;stroke-miterlimit:4;stroke-opacity:1;stroke-dashoffset:0" />
      <path
         sodipodi:nodetypes="ccccc"
         inkscape:connector-curvature="0"
         id="rect5809"
         d="m 1047.6901,417.6976 c 4.1976,-0.77981 6.9784,0.56554 5.87,7.74471 l -19.1331,14.50144 -5.8699,-7.7447 z"
         inkscape:transform-center-x="-12.913014"
         style="fill:#ffffff;fill-opacity:1;fill-rule:nonzero;stroke:#000000;stroke-width:0.82306725;stroke-linecap:round;stroke-linejoin:miter;stroke-miterlimit:4;stroke-opacity:1;stroke-dashoffset:0" />
      <path
         sodipodi:nodetypes="ccccc"
         inkscape:connector-curvature="0"
         id="rect6943"
         d="m 1011.2341,441.05647 4.8864,-8.39999 -20.75197,-12.07158 c -4.14483,1.12264 -6.71011,3.2983 -4.88635,8.39999 z"
         style="fill:#ffffff;fill-opacity:1;fill-rule:nonzero;stroke:#000000;stroke-width:0.82306725;stroke-linecap:round;stroke-linejoin:miter;stroke-miterlimit:4;stroke-opacity:1;stroke-dashoffset:0" />
      <path
         sodipodi:nodetypes="ccccscc"
         inkscape:connector-curvature="0"
         id="path6954"
         d="m 1006.1428,376.54073 c 0.075,0.12411 15.1255,6.29986 30.4168,1.20151 8.0963,-2.09691 2.2786,18.54659 8.0832,15.54849 l 1.25,-17.75 c 0,0 -10.75,-13.75 -30.75,-8.25 -30.18436,8.30071 -13.75,26 -13.75,26 z"
         style="fill:#ffffff;stroke:#000000;stroke-width:1px;stroke-linecap:butt;stroke-linejoin:miter;stroke-opacity:1" />
    </g>
  </g>
</svg>
