<?xml version="1.0" encoding="UTF-8" standalone="no"?>
<!-- Created with Inkscape (http://www.inkscape.org/) -->

<svg
   xmlns:dc="http://purl.org/dc/elements/1.1/"
   xmlns:cc="http://creativecommons.org/ns#"
   xmlns:rdf="http://www.w3.org/1999/02/22-rdf-syntax-ns#"
   xmlns:svg="http://www.w3.org/2000/svg"
   xmlns="http://www.w3.org/2000/svg"
   xmlns:sodipodi="http://sodipodi.sourceforge.net/DTD/sodipodi-0.dtd"
   xmlns:inkscape="http://www.inkscape.org/namespaces/inkscape"
   width="37.330002"
   height="7.1999998"
   id="svg5076"
   version="1.1"
   inkscape:version="0.48.5 r10040"
   sodipodi:docname="slow-fast.svg">
  <defs
     id="defs5078">
    <marker
       inkscape:stockid="Arrow2Mstart"
       orient="auto"
       refY="0"
       refX="0"
       id="Arrow2Mstart"
       style="overflow:visible">
      <path
         inkscape:connector-curvature="0"
         id="path4726"
         style="fill-rule:evenodd;stroke-width:0.625;stroke-linejoin:round"
         d="M 8.7185878,4.0337352 -2.2072895,0.01601326 8.7185884,-4.0017078 c -1.7454984,2.3720609 -1.7354408,5.6174519 -6e-7,8.035443 z"
         transform="scale(0.6,0.6)" />
    </marker>
    <marker
       inkscape:stockid="Arrow2Mend"
       orient="auto"
       refY="0"
       refX="0"
       id="Arrow2Mend"
       style="overflow:visible">
      <path
         inkscape:connector-curvature="0"
         id="path4729"
         style="fill-rule:evenodd;stroke-width:0.625;stroke-linejoin:round"
         d="M 8.7185878,4.0337352 -2.2072895,0.01601326 8.7185884,-4.0017078 c -1.7454984,2.3720609 -1.7354408,5.6174519 -6e-7,8.035443 z"
         transform="scale(-0.6,-0.6)" />
    </marker>
    <marker
       inkscape:stockid="Arrow2Mstart"
       orient="auto"
       refY="0"
       refX="0"
       id="Arrow2Mstart-1"
       style="overflow:visible">
      <path
         inkscape:connector-curvature="0"
         id="path4726-7"
         style="fill-rule:evenodd;stroke-width:0.625;stroke-linejoin:round"
         d="M 8.7185878,4.0337352 -2.2072895,0.01601326 8.7185884,-4.0017078 c -1.7454984,2.3720609 -1.7354408,5.6174519 -6e-7,8.035443 z"
         transform="scale(0.6,0.6)" />
    </marker>
    <marker
       inkscape:stockid="Arrow2Mend"
       orient="auto"
       refY="0"
       refX="0"
       id="Arrow2Mend-4"
       style="overflow:visible">
      <path
         inkscape:connector-curvature="0"
         id="path4729-0"
         style="fill-rule:evenodd;stroke-width:0.625;stroke-linejoin:round"
         d="M 8.7185878,4.0337352 -2.2072895,0.01601326 8.7185884,-4.0017078 c -1.7454984,2.3720609 -1.7354408,5.6174519 -6e-7,8.035443 z"
         transform="scale(-0.6,-0.6)" />
    </marker>
  </defs>
  <sodipodi:namedview
     id="base"
     pagecolor="#ffffff"
     bordercolor="#666666"
     borderopacity="1.0"
     inkscape:pageopacity="0.0"
     inkscape:pageshadow="2"
     inkscape:zoom="11.2"
     inkscape:cx="18.425633"
     inkscape:cy="4.9183664"
     inkscape:document-units="px"
     inkscape:current-layer="layer1"
     showgrid="false"
     fit-margin-top="0"
     fit-margin-left="0"
     fit-margin-right="0"
     fit-margin-bottom="0"
     inkscape:window-width="505"
     inkscape:window-height="453"
     inkscape:window-x="615"
     inkscape:window-y="40"
     inkscape:window-maximized="0" />
  <metadata
     id="metadata5081">
    <rdf:RDF>
      <cc:Work
         rdf:about="">
        <dc:format>image/svg+xml</dc:format>
        <dc:type
           rdf:resource="http://purl.org/dc/dcmitype/StillImage" />
        <dc:title />
      </cc:Work>
    </rdf:RDF>
  </metadata>
  <g
     inkscape:label="Ebene 1"
     inkscape:groupmode="layer"
     id="layer1"
     transform="translate(-401.83691,-485.40355)">
    <path
       inkscape:connector-curvature="0"
       id="path7178"
       d="m 438.2585,487.23785 -35.00179,0"
       style="fill:none;stroke:#000000;stroke-width:0.5;stroke-linecap:butt;stroke-linejoin:miter;stroke-miterlimit:4;stroke-opacity:1;stroke-dasharray:none;marker-start:url(#Arrow2Mstart);marker-end:url(#Arrow2Mend)" />
    <g
       style="font-size:4px;font-style:normal;font-variant:normal;font-weight:normal;font-stretch:normal;text-align:start;line-height:125%;letter-spacing:0px;word-spacing:0px;writing-mode:lr-tb;text-anchor:start;fill:#000000;fill-opacity:1;stroke:none;font-family:Calibri;-inkscape-font-specification:Calibri"
       id="text7180">
      <path
         d="m 403.83868,491.66028 c 0,0.0898 -0.0166,0.16992 -0.0498,0.24023 -0.0332,0.0703 -0.0804,0.12956 -0.1416,0.17774 -0.0612,0.0482 -0.13412,0.0846 -0.21875,0.10937 -0.0846,0.0247 -0.17774,0.0371 -0.2793,0.0371 -0.0625,0 -0.12207,-0.005 -0.17871,-0.0147 -0.0566,-0.01 -0.10742,-0.0221 -0.15234,-0.0371 -0.0449,-0.015 -0.083,-0.0306 -0.11426,-0.0469 -0.0312,-0.0163 -0.054,-0.0309 -0.0684,-0.0439 -0.0143,-0.013 -0.0247,-0.0312 -0.0312,-0.0547 -0.007,-0.0234 -0.01,-0.0553 -0.01,-0.0957 0,-0.0247 0.001,-0.0456 0.004,-0.0625 0.003,-0.0169 0.006,-0.0306 0.01,-0.041 0.004,-0.0104 0.009,-0.0179 0.0166,-0.0225 0.007,-0.005 0.0153,-0.007 0.0244,-0.007 0.0143,0 0.0355,0.009 0.0635,0.0264 0.028,0.0176 0.0625,0.0368 0.10351,0.0576 0.041,0.0208 0.0895,0.04 0.14551,0.0576 0.056,0.0176 0.12044,0.0264 0.19336,0.0264 0.0547,0 0.10417,-0.006 0.14844,-0.0176 0.0443,-0.0117 0.0827,-0.029 0.11523,-0.0518 0.0325,-0.0228 0.0576,-0.0518 0.0752,-0.0869 0.0176,-0.0352 0.0264,-0.0768 0.0264,-0.125 0,-0.0495 -0.0127,-0.0912 -0.0381,-0.125 -0.0254,-0.0339 -0.0589,-0.0638 -0.10059,-0.0898 -0.0417,-0.026 -0.0885,-0.0492 -0.14062,-0.0693 -0.0521,-0.0202 -0.1058,-0.0413 -0.16113,-0.0635 -0.0553,-0.0221 -0.10938,-0.0472 -0.16211,-0.0752 -0.0527,-0.028 -0.0999,-0.0622 -0.14161,-0.10254 -0.0417,-0.0404 -0.0752,-0.0885 -0.10058,-0.14453 -0.0254,-0.056 -0.0381,-0.12305 -0.0381,-0.20117 0,-0.069 0.0134,-0.13509 0.04,-0.19825 0.0267,-0.0632 0.0667,-0.11848 0.12012,-0.16601 0.0534,-0.0475 0.12012,-0.0856 0.20019,-0.11426 0.0801,-0.0286 0.17351,-0.043 0.28028,-0.043 0.0469,0 0.0937,0.004 0.14062,0.0117 0.0469,0.008 0.0892,0.0176 0.12696,0.0293 0.0377,0.0117 0.07,0.0244 0.0967,0.0381 0.0267,0.0137 0.0469,0.0257 0.0605,0.0361 0.0137,0.0104 0.0228,0.0195 0.0274,0.0273 0.005,0.008 0.008,0.0166 0.01,0.0264 0.002,0.01 0.004,0.0218 0.006,0.0361 0.002,0.0143 0.003,0.0319 0.003,0.0527 0,0.0221 -9.8e-4,0.0413 -0.003,0.0576 -0.002,0.0163 -0.005,0.0296 -0.01,0.04 -0.005,0.0104 -0.0101,0.0179 -0.0166,0.0225 -0.007,0.005 -0.0137,0.007 -0.0215,0.007 -0.0117,0 -0.0286,-0.007 -0.0508,-0.0215 -0.0221,-0.0143 -0.0508,-0.0296 -0.0859,-0.0459 -0.0352,-0.0163 -0.0765,-0.0316 -0.12402,-0.0459 -0.0475,-0.0143 -0.10189,-0.0215 -0.16309,-0.0215 -0.0547,0 -0.10286,0.006 -0.14453,0.0186 -0.0417,0.0124 -0.0759,0.03 -0.10254,0.0527 -0.0267,0.0228 -0.0469,0.0498 -0.0605,0.0811 -0.0137,0.0313 -0.0205,0.0651 -0.0205,0.10157 0,0.0508 0.013,0.0934 0.0391,0.12793 0.026,0.0345 0.0599,0.0648 0.10156,0.0908 0.0417,0.026 0.0892,0.0495 0.14258,0.0703 0.0534,0.0208 0.10775,0.0423 0.16309,0.0645 0.0553,0.0221 0.11002,0.0469 0.16406,0.0742 0.054,0.0273 0.10188,0.0605 0.14355,0.0996 0.0417,0.0391 0.0752,0.0859 0.10059,0.14063 0.0254,0.0547 0.0381,0.11979 0.0381,0.19531 z"
         style=""
         id="path4212" />
      <path
         d="m 404.61993,492.13879 c 0,0.0104 -0.003,0.0192 -0.008,0.0264 -0.005,0.007 -0.0137,0.0134 -0.0254,0.0186 -0.0117,0.005 -0.028,0.009 -0.0488,0.0117 -0.0208,0.003 -0.0475,0.004 -0.0801,0.004 -0.0312,0 -0.0573,-0.001 -0.0781,-0.004 -0.0208,-0.003 -0.0374,-0.007 -0.0498,-0.0117 -0.0124,-0.005 -0.0208,-0.0114 -0.0254,-0.0186 -0.005,-0.007 -0.007,-0.016 -0.007,-0.0264 l 0,-2.60937 c 0,-0.0104 0.002,-0.0195 0.007,-0.0273 0.005,-0.008 0.013,-0.0143 0.0254,-0.0195 0.0124,-0.005 0.029,-0.009 0.0498,-0.0117 0.0208,-0.003 0.0469,-0.004 0.0781,-0.004 0.0326,0 0.0592,0.001 0.0801,0.004 0.0208,0.003 0.0371,0.007 0.0488,0.0117 0.0117,0.005 0.0202,0.0117 0.0254,0.0195 0.005,0.008 0.008,0.0169 0.008,0.0273 z"
         style=""
         id="path4214" />
      <path
         d="m 406.85431,491.24036 c 0,0.14323 -0.0189,0.27506 -0.0566,0.3955 -0.0378,0.12045 -0.0941,0.22429 -0.16895,0.31153 -0.0749,0.0872 -0.16862,0.15527 -0.28125,0.2041 -0.11263,0.0488 -0.24316,0.0732 -0.3916,0.0732 -0.14453,0 -0.27051,-0.0215 -0.37793,-0.0645 -0.10742,-0.043 -0.19694,-0.10547 -0.26855,-0.1875 -0.0716,-0.082 -0.125,-0.18164 -0.16016,-0.29883 -0.0352,-0.11719 -0.0527,-0.25 -0.0527,-0.39844 0,-0.14323 0.0186,-0.27506 0.0557,-0.39551 0.0371,-0.12044 0.0931,-0.22428 0.16797,-0.31152 0.0749,-0.0872 0.16829,-0.15494 0.28027,-0.20312 0.11198,-0.0482 0.24284,-0.0723 0.39258,-0.0723 0.14453,0 0.27051,0.0215 0.37793,0.0644 0.10742,0.043 0.19694,0.10547 0.26856,0.1875 0.0716,0.082 0.12532,0.18165 0.16113,0.29883 0.0358,0.11719 0.0537,0.24935 0.0537,0.39649 z m -0.33984,0.0215 c -1e-5,-0.0951 -0.009,-0.18489 -0.0264,-0.26953 -0.0176,-0.0846 -0.0465,-0.15885 -0.0869,-0.22266 -0.0404,-0.0638 -0.0951,-0.11425 -0.16406,-0.15136 -0.069,-0.0371 -0.15495,-0.0557 -0.25781,-0.0557 -0.0951,0 -0.17676,0.0169 -0.24512,0.0508 -0.0684,0.0339 -0.12467,0.0817 -0.16894,0.14356 -0.0443,0.0618 -0.0772,0.13509 -0.0986,0.21972 -0.0215,0.0846 -0.0322,0.17709 -0.0322,0.27735 0,0.0963 0.009,0.18685 0.0264,0.27148 0.0176,0.0846 0.0469,0.15853 0.0879,0.22168 0.041,0.0632 0.096,0.11328 0.16503,0.15039 0.069,0.0371 0.15495,0.0557 0.25782,0.0557 0.0937,0 0.17513,-0.0169 0.24414,-0.0508 0.069,-0.0339 0.12565,-0.0814 0.16992,-0.14258 0.0443,-0.0612 0.0768,-0.13412 0.0977,-0.21875 0.0208,-0.0846 0.0312,-0.17774 0.0312,-0.2793 z"
         style=""
         id="path4216" />
      <path
         d="m 409.7879,490.37708 c 0,0.009 -0.001,0.0202 -0.004,0.0332 -0.003,0.013 -0.007,0.0293 -0.0137,0.0488 l -0.51757,1.66992 c -0.004,0.0143 -0.0101,0.026 -0.0186,0.0351 -0.008,0.009 -0.0202,0.0163 -0.0351,0.0215 -0.015,0.005 -0.0355,0.009 -0.0615,0.0107 -0.026,0.002 -0.0586,0.003 -0.0977,0.003 -0.0404,0 -0.0742,-0.001 -0.10157,-0.004 -0.0273,-0.003 -0.0491,-0.007 -0.0654,-0.0117 -0.0163,-0.005 -0.0283,-0.0124 -0.0361,-0.0215 -0.008,-0.009 -0.0137,-0.0202 -0.0176,-0.0332 l -0.36914,-1.27539 -0.004,-0.0176 -0.004,0.0176 -0.3418,1.27539 c -0.004,0.0143 -0.0101,0.026 -0.0186,0.0351 -0.008,0.009 -0.0212,0.0163 -0.0381,0.0215 -0.0169,0.005 -0.0387,0.009 -0.0654,0.0107 -0.0267,0.002 -0.0596,0.003 -0.0986,0.003 -0.0404,0 -0.0732,-0.001 -0.0986,-0.004 -0.0254,-0.003 -0.0462,-0.007 -0.0625,-0.0117 -0.0163,-0.005 -0.0283,-0.0124 -0.0361,-0.0215 -0.008,-0.009 -0.0137,-0.0202 -0.0176,-0.0332 l -0.51368,-1.66992 c -0.007,-0.0195 -0.0111,-0.0358 -0.0137,-0.0488 -0.003,-0.013 -0.004,-0.0241 -0.004,-0.0332 0,-0.0117 0.003,-0.0212 0.008,-0.0283 0.005,-0.007 0.014,-0.013 0.0264,-0.0176 0.0124,-0.005 0.029,-0.007 0.0498,-0.009 0.0208,-0.001 0.0462,-0.002 0.0762,-0.002 0.0365,1e-5 0.0658,9.8e-4 0.0879,0.003 0.0221,0.002 0.0391,0.005 0.0508,0.01 0.0117,0.005 0.0202,0.0111 0.0254,0.0195 0.005,0.008 0.01,0.0186 0.0137,0.0303 l 0.42382,1.44922 0.004,0.0176 0.004,-0.0176 0.38867,-1.44922 c 0.003,-0.0117 0.007,-0.0218 0.0127,-0.0303 0.006,-0.008 0.0146,-0.015 0.0264,-0.0195 0.0117,-0.005 0.0277,-0.008 0.0478,-0.01 0.0202,-0.002 0.0466,-0.003 0.0791,-0.003 0.0312,1e-5 0.057,9.8e-4 0.0771,0.003 0.0202,0.002 0.0361,0.005 0.0479,0.01 0.0117,0.005 0.0202,0.0107 0.0254,0.0186 0.005,0.008 0.009,0.0169 0.0117,0.0274 l 0.41993,1.45312 0.004,0.0176 0.002,-0.0176 0.41796,-1.44922 c 0.003,-0.0117 0.007,-0.0218 0.0127,-0.0303 0.006,-0.008 0.015,-0.015 0.0273,-0.0195 0.0124,-0.005 0.0293,-0.008 0.0508,-0.01 0.0215,-0.002 0.0492,-0.003 0.083,-0.003 0.0312,1e-5 0.0563,6.6e-4 0.0752,0.002 0.0189,0.001 0.0338,0.005 0.0449,0.01 0.0111,0.005 0.0189,0.0111 0.0234,0.0176 0.005,0.007 0.007,0.0156 0.007,0.0273 z"
         style=""
         id="path4218" />
    </g>
    <g
       style="font-size:4px;font-style:normal;font-variant:normal;font-weight:normal;font-stretch:normal;text-align:start;line-height:125%;letter-spacing:0px;word-spacing:0px;writing-mode:lr-tb;text-anchor:start;fill:#000000;fill-opacity:1;stroke:none;font-family:Calibri;-inkscape-font-specification:Calibri"
       id="text7184">
      <path
         d="m 434.27423,489.65833 c 0,0.0247 -0.001,0.0446 -0.004,0.0596 -0.003,0.015 -0.006,0.027 -0.009,0.0361 -0.003,0.009 -0.007,0.0153 -0.0127,0.0186 -0.005,0.003 -0.0117,0.005 -0.0195,0.005 -0.009,0 -0.0205,-0.003 -0.0342,-0.009 -0.0137,-0.006 -0.0303,-0.0124 -0.0498,-0.0195 -0.0195,-0.007 -0.0426,-0.0137 -0.0693,-0.0195 -0.0267,-0.006 -0.0576,-0.009 -0.0928,-0.009 -0.0482,0 -0.0892,0.008 -0.12305,0.0234 -0.0339,0.0156 -0.0612,0.04 -0.082,0.0732 -0.0208,0.0332 -0.0358,0.0762 -0.0449,0.12891 -0.009,0.0527 -0.0137,0.11687 -0.0137,0.19238 l 0,0.19141 0.39258,0 c 0.0104,0 0.0192,0.002 0.0264,0.007 0.007,0.005 0.0137,0.0124 0.0195,0.0234 0.006,0.0111 0.0104,0.0251 0.0137,0.042 0.003,0.0169 0.005,0.0378 0.005,0.0625 0,0.0469 -0.006,0.0807 -0.0176,0.10156 -0.0117,0.0208 -0.0274,0.0312 -0.0469,0.0312 l -0.39258,0 0,1.54101 c 0,0.0104 -0.003,0.0192 -0.008,0.0264 -0.005,0.007 -0.014,0.0134 -0.0264,0.0186 -0.0124,0.005 -0.029,0.009 -0.0498,0.0117 -0.0208,0.003 -0.0469,0.004 -0.0781,0.004 -0.0312,0 -0.0573,-0.001 -0.0781,-0.004 -0.0208,-0.003 -0.0374,-0.007 -0.0498,-0.0117 -0.0124,-0.005 -0.0212,-0.0114 -0.0264,-0.0186 -0.005,-0.007 -0.008,-0.016 -0.008,-0.0264 l 0,-1.54101 -0.24804,0 c -0.0208,0 -0.0365,-0.0104 -0.0469,-0.0312 -0.0104,-0.0208 -0.0156,-0.0547 -0.0156,-0.10156 0,-0.0247 0.001,-0.0456 0.004,-0.0625 0.003,-0.0169 0.007,-0.0309 0.0117,-0.042 0.005,-0.0111 0.0117,-0.0189 0.0195,-0.0234 0.008,-0.005 0.0169,-0.007 0.0274,-0.007 l 0.24804,0 0,-0.18164 c 0,-0.12239 0.0114,-0.22754 0.0342,-0.31543 0.0228,-0.0879 0.0576,-0.15983 0.1045,-0.21582 0.0469,-0.056 0.10579,-0.0973 0.17675,-0.12402 0.071,-0.0267 0.15463,-0.04 0.25098,-0.04 0.0456,0 0.0898,0.004 0.13281,0.0127 0.043,0.008 0.0762,0.0176 0.0996,0.0274 0.0234,0.01 0.0391,0.0186 0.0469,0.0264 0.008,0.008 0.0143,0.0179 0.0195,0.0303 0.005,0.0124 0.009,0.0273 0.0107,0.0449 0.002,0.0176 0.003,0.0387 0.003,0.0635 z"
         style=""
         id="path4221" />
      <path
         d="m 435.85431,492.14075 c 0,0.0156 -0.005,0.0273 -0.0156,0.0351 -0.0104,0.008 -0.0247,0.0137 -0.043,0.0176 -0.0182,0.004 -0.0449,0.006 -0.0801,0.006 -0.0339,0 -0.0609,-0.002 -0.0811,-0.006 -0.0202,-0.004 -0.0348,-0.01 -0.0439,-0.0176 -0.009,-0.008 -0.0137,-0.0195 -0.0137,-0.0351 l 0,-0.17578 c -0.0768,0.082 -0.16244,0.14583 -0.25684,0.1914 -0.0944,0.0456 -0.19434,0.0684 -0.29981,0.0684 -0.0924,0 -0.1761,-0.012 -0.25097,-0.0361 -0.0749,-0.0241 -0.13867,-0.0589 -0.19141,-0.10449 -0.0527,-0.0456 -0.0937,-0.10157 -0.12304,-0.16797 -0.0293,-0.0664 -0.0439,-0.14193 -0.0439,-0.22656 0,-0.099 0.0202,-0.1849 0.0605,-0.25782 0.0404,-0.0729 0.0983,-0.13346 0.17382,-0.18164 0.0755,-0.0482 0.16797,-0.0843 0.27735,-0.1084 0.10937,-0.0241 0.23242,-0.0361 0.36914,-0.0361 l 0.24219,0 0,-0.13672 c 0,-0.0677 -0.007,-0.1276 -0.0215,-0.17969 -0.0143,-0.0521 -0.0374,-0.0954 -0.0693,-0.12988 -0.0319,-0.0345 -0.0732,-0.0605 -0.12403,-0.0781 -0.0508,-0.0176 -0.11328,-0.0264 -0.1875,-0.0264 -0.0794,0 -0.15071,0.009 -0.21386,0.0283 -0.0632,0.0189 -0.11849,0.0397 -0.16602,0.0625 -0.0475,0.0228 -0.0872,0.0436 -0.11914,0.0625 -0.0319,0.0189 -0.0557,0.0283 -0.0713,0.0283 -0.0104,0 -0.0195,-0.003 -0.0273,-0.008 -0.008,-0.005 -0.0147,-0.013 -0.0205,-0.0234 -0.006,-0.0104 -0.0101,-0.0238 -0.0127,-0.04 -0.003,-0.0163 -0.004,-0.0342 -0.004,-0.0537 0,-0.0326 0.002,-0.0583 0.007,-0.0772 0.005,-0.0189 0.0156,-0.0368 0.0332,-0.0537 0.0176,-0.0169 0.0479,-0.0368 0.0908,-0.0596 0.043,-0.0228 0.0924,-0.0436 0.14843,-0.0625 0.056,-0.0189 0.11719,-0.0345 0.1836,-0.0469 0.0664,-0.0124 0.13346,-0.0186 0.20117,-0.0186 0.1263,0 0.23372,0.0143 0.32227,0.043 0.0885,0.0287 0.16015,0.0706 0.21484,0.12598 0.0547,0.0553 0.0944,0.12402 0.11914,0.20605 0.0247,0.082 0.0371,0.17774 0.0371,0.28711 z m -0.32031,-0.80274 -0.27539,0 c -0.0885,0 -0.16537,0.007 -0.23047,0.0225 -0.0651,0.015 -0.11914,0.0371 -0.16211,0.0664 -0.043,0.0293 -0.0746,0.0645 -0.0947,0.10547 -0.0202,0.041 -0.0303,0.0882 -0.0303,0.1416 0,0.0912 0.029,0.16374 0.0869,0.21777 0.0579,0.054 0.139,0.0811 0.24317,0.0811 0.0846,0 0.16308,-0.0215 0.23535,-0.0645 0.0723,-0.043 0.14811,-0.10873 0.22754,-0.19727 z"
         style=""
         id="path4223" />
      <path
         d="m 437.54767,491.66028 c 0,0.0898 -0.0166,0.16992 -0.0498,0.24023 -0.0332,0.0703 -0.0804,0.12956 -0.1416,0.17774 -0.0612,0.0482 -0.13411,0.0846 -0.21875,0.10937 -0.0846,0.0247 -0.17773,0.0371 -0.27929,0.0371 -0.0625,0 -0.12208,-0.005 -0.17872,-0.0147 -0.0566,-0.01 -0.10742,-0.0221 -0.15234,-0.0371 -0.0449,-0.015 -0.083,-0.0306 -0.11426,-0.0469 -0.0312,-0.0163 -0.054,-0.0309 -0.0684,-0.0439 -0.0143,-0.013 -0.0247,-0.0312 -0.0312,-0.0547 -0.007,-0.0234 -0.01,-0.0553 -0.01,-0.0957 0,-0.0247 0.001,-0.0456 0.004,-0.0625 0.003,-0.0169 0.006,-0.0306 0.01,-0.041 0.004,-0.0104 0.009,-0.0179 0.0166,-0.0225 0.007,-0.005 0.0153,-0.007 0.0244,-0.007 0.0143,0 0.0355,0.009 0.0635,0.0264 0.028,0.0176 0.0625,0.0368 0.10352,0.0576 0.041,0.0208 0.0895,0.04 0.14551,0.0576 0.056,0.0176 0.12044,0.0264 0.19335,0.0264 0.0547,0 0.10417,-0.006 0.14844,-0.0176 0.0443,-0.0117 0.0827,-0.029 0.11524,-0.0518 0.0326,-0.0228 0.0576,-0.0518 0.0752,-0.0869 0.0176,-0.0352 0.0264,-0.0768 0.0264,-0.125 0,-0.0495 -0.0127,-0.0912 -0.0381,-0.125 -0.0254,-0.0339 -0.0589,-0.0638 -0.10058,-0.0898 -0.0417,-0.026 -0.0885,-0.0492 -0.14063,-0.0693 -0.0521,-0.0202 -0.10579,-0.0413 -0.16113,-0.0635 -0.0553,-0.0221 -0.10938,-0.0472 -0.16211,-0.0752 -0.0527,-0.028 -0.0999,-0.0622 -0.1416,-0.10254 -0.0417,-0.0404 -0.0752,-0.0885 -0.10059,-0.14453 -0.0254,-0.056 -0.0381,-0.12305 -0.0381,-0.20117 0,-0.069 0.0133,-0.13509 0.04,-0.19825 0.0267,-0.0632 0.0667,-0.11848 0.12011,-0.16601 0.0534,-0.0475 0.12012,-0.0856 0.2002,-0.11426 0.0801,-0.0286 0.1735,-0.043 0.28027,-0.043 0.0469,0 0.0937,0.004 0.14063,0.0117 0.0469,0.008 0.0892,0.0176 0.12695,0.0293 0.0378,0.0117 0.07,0.0244 0.0967,0.0381 0.0267,0.0137 0.0469,0.0257 0.0605,0.0361 0.0137,0.0104 0.0228,0.0195 0.0273,0.0273 0.005,0.008 0.008,0.0166 0.01,0.0264 0.002,0.01 0.004,0.0218 0.006,0.0361 0.002,0.0143 0.003,0.0319 0.003,0.0527 0,0.0221 -9.7e-4,0.0413 -0.003,0.0576 -0.002,0.0163 -0.005,0.0296 -0.01,0.04 -0.005,0.0104 -0.0101,0.0179 -0.0166,0.0225 -0.007,0.005 -0.0137,0.007 -0.0215,0.007 -0.0117,0 -0.0286,-0.007 -0.0508,-0.0215 -0.0221,-0.0143 -0.0508,-0.0296 -0.0859,-0.0459 -0.0352,-0.0163 -0.0765,-0.0316 -0.12402,-0.0459 -0.0475,-0.0143 -0.10189,-0.0215 -0.16308,-0.0215 -0.0547,0 -0.10287,0.006 -0.14454,0.0186 -0.0417,0.0124 -0.0758,0.03 -0.10253,0.0527 -0.0267,0.0228 -0.0469,0.0498 -0.0606,0.0811 -0.0137,0.0313 -0.0205,0.0651 -0.0205,0.10157 0,0.0508 0.013,0.0934 0.0391,0.12793 0.026,0.0345 0.0599,0.0648 0.10157,0.0908 0.0417,0.026 0.0892,0.0495 0.14257,0.0703 0.0534,0.0208 0.10775,0.0423 0.16309,0.0645 0.0553,0.0221 0.11002,0.0469 0.16406,0.0742 0.054,0.0273 0.10189,0.0605 0.14356,0.0996 0.0417,0.0391 0.0752,0.0859 0.10058,0.14063 0.0254,0.0547 0.0381,0.11979 0.0381,0.19531 z"
         style=""
         id="path4225" />
      <path
         d="m 438.92072,492.00989 c -1e-5,0.0378 -0.003,0.0677 -0.008,0.0898 -0.005,0.0221 -0.013,0.0384 -0.0234,0.0488 -0.0104,0.0104 -0.026,0.0202 -0.0469,0.0293 -0.0208,0.009 -0.0446,0.0166 -0.0713,0.0225 -0.0267,0.006 -0.055,0.0107 -0.085,0.0147 -0.0299,0.004 -0.0599,0.006 -0.0898,0.006 -0.0911,0 -0.16927,-0.012 -0.23438,-0.0361 -0.0651,-0.0241 -0.11849,-0.0605 -0.16015,-0.10937 -0.0417,-0.0488 -0.072,-0.11068 -0.0908,-0.18555 -0.0189,-0.0749 -0.0283,-0.16308 -0.0283,-0.26465 l 0,-1.02734 -0.24609,0 c -0.0195,0 -0.0352,-0.0104 -0.0469,-0.0312 -0.0117,-0.0208 -0.0176,-0.0547 -0.0176,-0.10156 0,-0.0247 0.002,-0.0456 0.005,-0.0625 0.003,-0.0169 0.007,-0.0309 0.0127,-0.042 0.005,-0.0111 0.012,-0.0189 0.0205,-0.0234 0.008,-0.005 0.0179,-0.007 0.0283,-0.007 l 0.24414,0 0,-0.41797 c 0,-0.009 0.002,-0.0176 0.007,-0.0254 0.005,-0.008 0.013,-0.0147 0.0254,-0.0205 0.0124,-0.006 0.029,-0.0101 0.0498,-0.0127 0.0208,-0.003 0.0469,-0.004 0.0781,-0.004 0.0326,0 0.0593,0.001 0.0801,0.004 0.0208,0.003 0.0371,0.007 0.0488,0.0127 0.0117,0.006 0.0202,0.0127 0.0254,0.0205 0.005,0.008 0.008,0.0163 0.008,0.0254 l 0,0.41797 0.45117,0 c 0.0104,0 0.0195,0.002 0.0273,0.007 0.008,0.005 0.0146,0.0124 0.0205,0.0234 0.006,0.0111 0.0101,0.0251 0.0127,0.042 0.003,0.0169 0.004,0.0378 0.004,0.0625 -1e-5,0.0469 -0.006,0.0807 -0.0176,0.10156 -0.0117,0.0208 -0.0274,0.0312 -0.0469,0.0312 l -0.45117,0 0,0.98047 c 0,0.12109 0.0179,0.21256 0.0537,0.27441 0.0358,0.0618 0.0999,0.0928 0.19238,0.0928 0.0299,0 0.0566,-0.003 0.0801,-0.009 0.0234,-0.006 0.0443,-0.012 0.0625,-0.0186 0.0182,-0.007 0.0339,-0.0127 0.0469,-0.0186 0.013,-0.006 0.0247,-0.009 0.0351,-0.009 0.007,0 0.0127,0.002 0.0186,0.005 0.006,0.003 0.0104,0.009 0.0137,0.0186 0.003,0.009 0.006,0.0215 0.009,0.0371 0.003,0.0156 0.004,0.0352 0.004,0.0586 z"
         style=""
         id="path4227" />
    </g>
  </g>
</svg>
