<?xml version="1.0" encoding="UTF-8" standalone="no"?>
<!-- Created with Inkscape (http://www.inkscape.org/) -->

<svg
   xmlns:dc="http://purl.org/dc/elements/1.1/"
   xmlns:cc="http://creativecommons.org/ns#"
   xmlns:rdf="http://www.w3.org/1999/02/22-rdf-syntax-ns#"
   xmlns:svg="http://www.w3.org/2000/svg"
   xmlns="http://www.w3.org/2000/svg"
   xmlns:sodipodi="http://sodipodi.sourceforge.net/DTD/sodipodi-0.dtd"
   xmlns:inkscape="http://www.inkscape.org/namespaces/inkscape"
   width="34.279999"
   height="34.279999"
   id="svg4511"
   version="1.1"
   inkscape:version="0.48.5 r10040"
   sodipodi:docname="Neues Dokument 8">
  <defs
     id="defs4513" />
  <sodipodi:namedview
     id="base"
     pagecolor="#ffffff"
     bordercolor="#666666"
     borderopacity="1.0"
     inkscape:pageopacity="0.0"
     inkscape:pageshadow="2"
     inkscape:zoom="5.6"
     inkscape:cx="20.705444"
     inkscape:cy="18.289384"
     inkscape:document-units="px"
     inkscape:current-layer="layer1"
     showgrid="false"
     fit-margin-top="0"
     fit-margin-left="0"
     fit-margin-right="0"
     fit-margin-bottom="0"
     inkscape:window-width="505"
     inkscape:window-height="453"
     inkscape:window-x="138"
     inkscape:window-y="138"
     inkscape:window-maximized="0" />
  <metadata
     id="metadata4516">
    <rdf:RDF>
      <cc:Work
         rdf:about="">
        <dc:format>image/svg+xml</dc:format>
        <dc:type
           rdf:resource="http://purl.org/dc/dcmitype/StillImage" />
        <dc:title></dc:title>
      </cc:Work>
    </rdf:RDF>
  </metadata>
  <g
     inkscape:label="Ebene 1"
     inkscape:groupmode="layer"
     id="layer1"
     transform="translate(-497.64081,-817.5837)">
    <g
       transform="translate(93.176524,559.16281)"
       id="g4470">
      <rect
         ry="3.5355339"
         rx="3.5355339"
         style="fill:none;stroke:#008000;stroke-width:0.5;stroke-miterlimit:4;stroke-dasharray:none"
         id="rect10551"
         width="32.762096"
         height="32.762096"
         x="405.26385"
         y="259.31833" />
      <g
         transform="matrix(0.65948885,0,0,0.65948885,-232.77951,0.62232806)"
         id="g7325">
        <text
           xml:space="preserve"
           style="font-size:9.09795475px;font-style:normal;font-variant:normal;font-weight:normal;font-stretch:normal;text-align:start;line-height:125%;letter-spacing:0px;word-spacing:0px;writing-mode:lr-tb;text-anchor:start;fill:#000000;fill-opacity:1;stroke:none;font-family:Calibri;-inkscape-font-specification:Calibri"
           x="979.48022"
           y="434.97333"
           id="text5458-5-1"
           sodipodi:linespacing="125%"><tspan
             sodipodi:role="line"
             id="tspan5460-0-8"
             x="979.48022"
             y="434.97333">Too fast</tspan></text>
        <path
           sodipodi:type="arc"
           style="fill:none;stroke:#000000;stroke-width:1;stroke-linecap:round;stroke-linejoin:miter;stroke-miterlimit:4;stroke-opacity:1;stroke-dasharray:none;stroke-dashoffset:0"
           id="path5462-9-4"
           sodipodi:cx="341.42856"
           sodipodi:cy="413.07648"
           sodipodi:rx="20.714285"
           sodipodi:ry="20.714285"
           d="m 362.14284,413.07648 c 0,11.44018 -9.2741,20.71428 -20.71428,20.71428 -11.44019,0 -20.71429,-9.2741 -20.71429,-20.71428 0,-11.44019 9.2741,-20.71429 20.71429,-20.71429 11.44018,0 20.71428,9.2741 20.71428,20.71429 z"
           transform="matrix(0.32671988,0,0,0.32671988,881.13755,276.20917)" />
        <path
           sodipodi:type="arc"
           style="fill:none;stroke:#000000;stroke-width:1;stroke-linecap:round;stroke-linejoin:miter;stroke-miterlimit:4;stroke-opacity:1;stroke-dasharray:none;stroke-dashoffset:0"
           id="path5466-0-9"
           sodipodi:cx="336.96429"
           sodipodi:cy="412.18362"
           sodipodi:rx="6.9642859"
           sodipodi:ry="6.9642859"
           d="m 343.92858,412.18362 c 0,3.84627 -3.11802,6.96429 -6.96429,6.96429 -3.84626,0 -6.96428,-3.11802 -6.96428,-6.96429 0,-3.84626 3.11802,-6.96428 6.96428,-6.96428 3.84627,0 6.96429,3.11802 6.96429,6.96428 z"
           transform="matrix(0.32671988,0,0,0.32671988,879.08388,275.50905)" />
        <path
           transform="matrix(0.32671988,0,0,0.32671988,885.73496,275.39237)"
           d="m 343.92858,412.18362 c 0,3.84627 -3.11802,6.96429 -6.96429,6.96429 -3.84626,0 -6.96428,-3.11802 -6.96428,-6.96429 0,-3.84626 3.11802,-6.96428 6.96428,-6.96428 3.84627,0 6.96429,3.11802 6.96429,6.96428 z"
           sodipodi:ry="6.9642859"
           sodipodi:rx="6.9642859"
           sodipodi:cy="412.18362"
           sodipodi:cx="336.96429"
           id="path5468-6-6"
           style="fill:none;stroke:#000000;stroke-width:1;stroke-linecap:round;stroke-linejoin:miter;stroke-miterlimit:4;stroke-opacity:1;stroke-dasharray:none;stroke-dashoffset:0"
           sodipodi:type="arc" />
        <path
           sodipodi:type="arc"
           style="fill:#000000;stroke:#000000;stroke-width:1;stroke-linecap:round;stroke-linejoin:miter;stroke-miterlimit:4;stroke-opacity:1;stroke-dasharray:none;stroke-dashoffset:0"
           id="path5470-1-3"
           sodipodi:cx="332.5"
           sodipodi:cy="411.46933"
           sodipodi:rx="1.0714285"
           sodipodi:ry="1.25"
           d="m 333.57143,411.46933 c 0,0.69036 -0.4797,1.25 -1.07143,1.25 -0.59173,0 -1.07143,-0.55964 -1.07143,-1.25 0,-0.69036 0.4797,-1.25 1.07143,-1.25 0.59173,0 1.07143,0.55964 1.07143,1.25 z"
           transform="matrix(0.32671988,0,0,0.32671988,880.65797,275.7518)" />
        <path
           d="m 333.57143,411.46933 c 0,0.69036 -0.4797,1.25 -1.07143,1.25 -0.59173,0 -1.07143,-0.55964 -1.07143,-1.25 0,-0.69036 0.4797,-1.25 1.07143,-1.25 0.59173,0 1.07143,0.55964 1.07143,1.25 z"
           sodipodi:ry="1.25"
           sodipodi:rx="1.0714285"
           sodipodi:cy="411.46933"
           sodipodi:cx="332.5"
           id="path5472-3-7"
           style="fill:#000000;stroke:#000000;stroke-width:1;stroke-linecap:round;stroke-linejoin:miter;stroke-miterlimit:4;stroke-opacity:1;stroke-dasharray:none;stroke-dashoffset:0"
           sodipodi:type="arc"
           transform="matrix(0.32671988,0,0,0.32671988,886.73031,276.44254)" />
        <path
           sodipodi:type="arc"
           style="fill:none;stroke:#000000;stroke-width:1;stroke-linecap:round;stroke-linejoin:miter;stroke-miterlimit:4;stroke-opacity:1;stroke-dasharray:none;stroke-dashoffset:0"
           id="path5477-9-8"
           sodipodi:cx="333.92856"
           sodipodi:cy="460.57648"
           sodipodi:rx="26.785715"
           sodipodi:ry="26.785715"
           d="m 360.71427,460.57648 c 0,14.79334 -11.99237,26.78571 -26.78571,26.78571 -14.79334,0 -26.78572,-11.99237 -26.78572,-26.78571 0,-14.79334 11.99238,-26.78572 26.78572,-26.78572 14.10171,0 25.78835,10.93348 26.72639,25.00396"
           sodipodi:start="0"
           sodipodi:end="6.2166171"
           sodipodi:open="true"
           transform="matrix(0.32671988,0,0,0.32671988,883.58795,276.20917)" />
        <path
           style="fill:#ffffff;fill-opacity:1;fill-rule:nonzero;stroke:#000000;stroke-width:0.26891243;stroke-linecap:round;stroke-linejoin:miter;stroke-miterlimit:4;stroke-opacity:1;stroke-dashoffset:0"
           inkscape:transform-center-x="-4.2189386"
           d="m 1001.0359,420.1005 c 1.3714,-0.25478 2.2799,0.18477 1.9178,2.53035 l -6.25116,4.73791 -1.91781,-2.53036 z"
           id="rect5809-2"
           inkscape:connector-curvature="0"
           sodipodi:nodetypes="ccccc" />
        <path
           style="fill:#ffffff;fill-opacity:1;fill-rule:nonzero;stroke:#000000;stroke-width:0.26891243;stroke-linecap:round;stroke-linejoin:miter;stroke-miterlimit:4;stroke-opacity:1;stroke-dashoffset:0"
           d="m 989.12496,427.7323 1.59647,-2.74444 -6.78007,-3.94402 c -1.3542,0.36679 -2.19233,1.07762 -1.59647,2.74444 z"
           id="rect6943-9"
           inkscape:connector-curvature="0"
           sodipodi:nodetypes="ccccc" />
        <path
           style="fill:#ffffff;stroke:#000000;stroke-width:0.32671988px;stroke-linecap:butt;stroke-linejoin:miter;stroke-opacity:1"
           d="m 987.75032,406.59597 c 2.63404,-1.61279 7.13531,-0.7324 9.93777,0.56583 1.02143,0.47317 0.97546,1.26575 1.65908,2.48096 0.96513,-0.50732 1.36833,-1.57651 1.10153,-3.31575 l -0.1563,-4.35253 c -0.037,-1.03026 -1.36395,1.86496 -3.02983,2.28233 -1.15331,0.28897 -0.58316,-1.5539 -1.90161,-1.87014 -0.27591,-0.0662 -0.77697,2.23421 -1.28606,2.13938 -0.7147,-0.13311 -1.50136,-2.63177 -2.1945,-2.39612 -0.71716,0.24381 -1.12569,1.40465 -1.47838,1.50164 -1.52617,0.4197 -3.6142,-2.75609 -3.79156,-1.78359 -0.66834,3.66463 -1.70085,7.85898 -0.7586,9.18094 0.30274,-1.55193 0.52757,-3.59357 1.89846,-4.43295 z"
           id="path6954-1"
           inkscape:connector-curvature="0"
           sodipodi:nodetypes="ssccssssssscs" />
        <path
           d="m 337.64348,422.50681 c 0,1.07394 -4.03643,1.94454 -9.01561,1.94454 -4.97919,0 -9.01561,-0.8706 -9.01561,-1.94454 0,-1.07395 4.03642,-1.94455 9.01561,-1.94455 4.97918,0 9.01561,0.8706 9.01561,1.94455 z"
           sodipodi:ry="1.9445436"
           sodipodi:rx="9.0156116"
           sodipodi:cy="422.50681"
           sodipodi:cx="328.62787"
           id="path7171"
           style="fill:#ffffff;fill-opacity:1;fill-rule:nonzero;stroke:#000000;stroke-width:1;stroke-linecap:round;stroke-linejoin:miter;stroke-miterlimit:4;stroke-opacity:1;stroke-dasharray:none;stroke-dashoffset:0"
           sodipodi:type="arc"
           transform="matrix(0.32671988,0,0,0.32671988,886.03836,277.42271)" />
      </g>
    </g>
  </g>
</svg>
