<?xml version="1.0" encoding="UTF-8" standalone="no"?>
<!-- Created with Inkscape (http://www.inkscape.org/) -->

<svg
   xmlns:dc="http://purl.org/dc/elements/1.1/"
   xmlns:cc="http://creativecommons.org/ns#"
   xmlns:rdf="http://www.w3.org/1999/02/22-rdf-syntax-ns#"
   xmlns:svg="http://www.w3.org/2000/svg"
   xmlns="http://www.w3.org/2000/svg"
   xmlns:sodipodi="http://sodipodi.sourceforge.net/DTD/sodipodi-0.dtd"
   xmlns:inkscape="http://www.inkscape.org/namespaces/inkscape"
   width="34.279999"
   height="34.279999"
   id="svg4339"
   version="1.1"
   inkscape:version="0.48.5 r10040"
   sodipodi:docname="Neues Dokument 4">
  <defs
     id="defs4341" />
  <sodipodi:namedview
     id="base"
     pagecolor="#ffffff"
     bordercolor="#666666"
     borderopacity="1.0"
     inkscape:pageopacity="0.0"
     inkscape:pageshadow="2"
     inkscape:zoom="5.6"
     inkscape:cx="28.990368"
     inkscape:cy="19.897365"
     inkscape:document-units="px"
     inkscape:current-layer="layer1"
     showgrid="false"
     fit-margin-top="0"
     fit-margin-left="0"
     fit-margin-right="0"
     fit-margin-bottom="0"
     inkscape:window-width="505"
     inkscape:window-height="453"
     inkscape:window-x="46"
     inkscape:window-y="46"
     inkscape:window-maximized="0" />
  <metadata
     id="metadata4344">
    <rdf:RDF>
      <cc:Work
         rdf:about="">
        <dc:format>image/svg+xml</dc:format>
        <dc:type
           rdf:resource="http://purl.org/dc/dcmitype/StillImage" />
        <dc:title></dc:title>
      </cc:Work>
    </rdf:RDF>
  </metadata>
  <g
     inkscape:label="Ebene 1"
     inkscape:groupmode="layer"
     id="layer1"
     transform="translate(-411.92649,-491.86941)">
    <g
       transform="translate(79.962208,233.69852)"
       id="g4294">
      <rect
         ry="3.5355339"
         rx="3.5355339"
         style="fill:none;stroke:#008000;stroke-width:0.5;stroke-miterlimit:4;stroke-dasharray:none"
         id="rect10555"
         width="32.762096"
         height="32.762096"
         x="332.76389"
         y="259.06833" />
      <g
         transform="matrix(0.65948885,0,0,0.65948885,-233.77913,2.7591972)"
         id="g7287">
        <text
           sodipodi:linespacing="125%"
           id="text7029"
           y="432.29715"
           x="870.26044"
           style="font-size:9.09795475px;font-style:normal;font-variant:normal;font-weight:normal;font-stretch:normal;text-align:start;line-height:125%;letter-spacing:0px;word-spacing:0px;writing-mode:lr-tb;text-anchor:start;fill:#000000;fill-opacity:1;stroke:none;font-family:Calibri;-inkscape-font-specification:Calibri"
           xml:space="preserve"><tspan
             y="432.29715"
             x="870.26044"
             id="tspan7031"
             sodipodi:role="line">Too slow</tspan></text>
        <path
           transform="matrix(0.31045709,0,0,0.31045709,779.14126,281.43562)"
           sodipodi:open="true"
           sodipodi:end="6.2166171"
           sodipodi:start="0"
           d="m 360.71427,460.57648 c 0,14.79334 -11.99237,26.78571 -26.78571,26.78571 -14.79334,0 -26.78572,-11.99237 -26.78572,-26.78571 0,-14.79334 11.99238,-26.78572 26.78572,-26.78572 14.10171,0 25.78835,10.93348 26.72639,25.00396"
           sodipodi:ry="26.785715"
           sodipodi:rx="26.785715"
           sodipodi:cy="460.57648"
           sodipodi:cx="333.92856"
           id="path7043"
           style="fill:none;stroke:#000000;stroke-width:1;stroke-linecap:round;stroke-linejoin:miter;stroke-miterlimit:4;stroke-opacity:1;stroke-dasharray:none;stroke-dashoffset:0"
           sodipodi:type="arc" />
        <path
           transform="matrix(0.31045709,0,0,0.31045709,777.58898,284.69541)"
           d="m 362.14284,413.07648 c 0,11.44018 -9.2741,20.71428 -20.71428,20.71428 -11.44019,0 -20.71429,-9.2741 -20.71429,-20.71428 0,-11.44019 9.2741,-20.71429 20.71429,-20.71429 11.44018,0 20.71428,9.2741 20.71428,20.71429 z"
           sodipodi:ry="20.714285"
           sodipodi:rx="20.714285"
           sodipodi:cy="413.07648"
           sodipodi:cx="341.42856"
           id="path7033"
           style="fill:#ffffff;stroke:#000000;stroke-width:1;stroke-linecap:round;stroke-linejoin:miter;stroke-miterlimit:4;stroke-opacity:1;stroke-dasharray:none;stroke-dashoffset:0"
           sodipodi:type="arc" />
        <path
           transform="matrix(0.31045709,0,0,0.31045709,776.83712,283.40466)"
           d="m 343.92858,412.18362 c 0,3.84627 -3.11802,6.96429 -6.96429,6.96429 -3.84626,0 -6.96428,-3.11802 -6.96428,-6.96429 0,-3.84626 3.11802,-6.96428 6.96428,-6.96428 3.84627,0 6.96429,3.11802 6.96429,6.96428 z"
           sodipodi:ry="6.9642859"
           sodipodi:rx="6.9642859"
           sodipodi:cy="412.18362"
           sodipodi:cx="336.96429"
           id="path7035"
           style="fill:none;stroke:#000000;stroke-width:1;stroke-linecap:round;stroke-linejoin:miter;stroke-miterlimit:4;stroke-opacity:1;stroke-dasharray:none;stroke-dashoffset:0"
           sodipodi:type="arc" />
        <path
           transform="matrix(0.31045709,0,0,0.31045709,778.33286,284.62321)"
           d="m 333.57143,411.46933 c 0,0.69036 -0.4797,1.25 -1.07143,1.25 -0.59173,0 -1.07143,-0.55964 -1.07143,-1.25 0,-0.69036 0.4797,-1.25 1.07143,-1.25 0.59173,0 1.07143,0.55964 1.07143,1.25 z"
           sodipodi:ry="1.25"
           sodipodi:rx="1.0714285"
           sodipodi:cy="411.46933"
           sodipodi:cx="332.5"
           id="path7039"
           style="fill:#000000;stroke:#000000;stroke-width:1;stroke-linecap:round;stroke-linejoin:miter;stroke-miterlimit:4;stroke-opacity:1;stroke-dasharray:none;stroke-dashoffset:0"
           sodipodi:type="arc" />
        <path
           sodipodi:nodetypes="ccccc"
           inkscape:connector-curvature="0"
           id="path7047"
           d="m 890.7431,418.16461 c 1.30316,-0.24209 2.16647,0.17558 1.82236,2.40441 l -5.94,4.50207 -1.82235,-2.4044 z"
           inkscape:transform-center-x="-4.0089403"
           style="fill:#ffffff;fill-opacity:1;fill-rule:nonzero;stroke:#000000;stroke-width:0.25552705;stroke-linecap:round;stroke-linejoin:miter;stroke-miterlimit:4;stroke-opacity:1;stroke-dashoffset:0" />
        <path
           sodipodi:nodetypes="ccccc"
           inkscape:connector-curvature="0"
           id="path7049"
           d="m 879.42507,425.41655 1.51699,-2.60784 -6.44258,-3.74771 c -1.28679,0.34853 -2.0832,1.02398 -1.517,2.60784 z"
           style="fill:#ffffff;fill-opacity:1;fill-rule:nonzero;stroke:#000000;stroke-width:0.25552705;stroke-linecap:round;stroke-linejoin:miter;stroke-miterlimit:4;stroke-opacity:1;stroke-dashoffset:0" />
        <path
           sodipodi:nodetypes="ccccscc"
           inkscape:connector-curvature="0"
           id="path7051"
           d="m 881.13733,408.24102 c 2.87698,1.19104 2.28103,1.40701 7.02832,-0.1758 2.51355,-0.651 0.92692,9.16058 2.72902,8.22979 l 0.16855,-8.91327 c 0,0 -3.33742,-4.26878 -9.54656,-2.56127 -9.37096,2.57702 -4.26878,11.58431 -4.26878,11.58431 0.25342,-4.12364 1.36944,-8.43165 3.88945,-8.16376 z"
           style="fill:#ffffff;stroke:#000000;stroke-width:0.31045708px;stroke-linecap:butt;stroke-linejoin:miter;stroke-opacity:1" />
        <path
           transform="matrix(0.31045709,0,0,0.31045709,782.22366,284.895)"
           sodipodi:type="arc"
           style="fill:#ffffff;fill-opacity:1;fill-rule:nonzero;stroke:#000000;stroke-width:1;stroke-linecap:round;stroke-linejoin:miter;stroke-miterlimit:4;stroke-opacity:1;stroke-dasharray:none;stroke-dashoffset:0"
           id="path7053"
           sodipodi:cx="328.62787"
           sodipodi:cy="422.50681"
           sodipodi:rx="9.0156116"
           sodipodi:ry="1.9445436"
           d="m 337.64348,422.50681 c 0,1.07394 -4.03643,1.94454 -9.01561,1.94454 -4.97919,0 -9.01561,-0.8706 -9.01561,-1.94454 0,-1.07395 4.03642,-1.94455 9.01561,-1.94455 4.97918,0 9.01561,0.8706 9.01561,1.94455 z" />
        <path
           sodipodi:type="arc"
           style="fill:none;stroke:#000000;stroke-width:1;stroke-linecap:round;stroke-linejoin:miter;stroke-miterlimit:4;stroke-opacity:1;stroke-dasharray:none;stroke-dashoffset:0"
           id="path7091"
           sodipodi:cx="336.96429"
           sodipodi:cy="412.18362"
           sodipodi:rx="6.9642859"
           sodipodi:ry="6.9642859"
           d="m 343.92858,412.18362 c 0,3.84627 -3.11802,6.96429 -6.96429,6.96429 -3.37076,0 -6.25768,-2.41404 -6.85432,-5.73158 l 6.85432,-1.23271 z"
           transform="matrix(0.31045709,0,0,0.31045709,776.83712,283.40466)"
           sodipodi:start="0"
           sodipodi:end="2.9636518" />
        <path
           sodipodi:type="arc"
           style="fill:none;stroke:#000000;stroke-width:1;stroke-linecap:round;stroke-linejoin:miter;stroke-miterlimit:4;stroke-opacity:1;stroke-dasharray:none;stroke-dashoffset:0"
           id="path7093"
           sodipodi:cx="336.96429"
           sodipodi:cy="412.18362"
           sodipodi:rx="6.9642859"
           sodipodi:ry="6.9642859"
           d="m 343.92858,412.18362 c 0,3.84627 -3.11802,6.96429 -6.96429,6.96429 -3.84626,0 -6.96428,-3.11802 -6.96428,-6.96429 0,-3.84626 3.11802,-6.96428 6.96428,-6.96428 3.84627,0 6.96429,3.11802 6.96429,6.96428 z"
           transform="matrix(0.31045709,0,0,0.31045709,782.42535,283.40466)" />
        <path
           sodipodi:type="arc"
           style="fill:#000000;stroke:#000000;stroke-width:1;stroke-linecap:round;stroke-linejoin:miter;stroke-miterlimit:4;stroke-opacity:1;stroke-dasharray:none;stroke-dashoffset:0"
           id="path7095"
           sodipodi:cx="332.5"
           sodipodi:cy="411.46933"
           sodipodi:rx="1.0714285"
           sodipodi:ry="1.25"
           d="m 333.57143,411.46933 c 0,0.69036 -0.4797,1.25 -1.07143,1.25 -0.59173,0 -1.07143,-0.55964 -1.07143,-1.25 0,-0.69036 0.4797,-1.25 1.07143,-1.25 0.59173,0 1.07143,0.55964 1.07143,1.25 z"
           transform="matrix(0.31045709,0,0,0.31045709,783.92109,284.62321)" />
        <path
           sodipodi:end="2.9636518"
           sodipodi:start="0"
           transform="matrix(0.31045709,0,0,0.31045709,782.42535,283.40466)"
           d="m 343.92858,412.18362 c 0,3.84627 -3.11802,6.96429 -6.96429,6.96429 -3.37076,0 -6.25768,-2.41404 -6.85432,-5.73158 l 6.85432,-1.23271 z"
           sodipodi:ry="6.9642859"
           sodipodi:rx="6.9642859"
           sodipodi:cy="412.18362"
           sodipodi:cx="336.96429"
           id="path7097"
           style="fill:none;stroke:#000000;stroke-width:1;stroke-linecap:round;stroke-linejoin:miter;stroke-miterlimit:4;stroke-opacity:1;stroke-dasharray:none;stroke-dashoffset:0"
           sodipodi:type="arc" />
      </g>
    </g>
  </g>
</svg>
